# xmcd
#
# Track frame offsets: 
#        150
#        16878
#        33619
#        48446
#        64702
#        77274
#        87563
#        98479
#        112458
#        125578
#        139722
#        157860
#        173689
#        186256
#        200169
#        211569
#        225510
#        237705
#        249758
#        261820
#
# Disc length: 3690 seconds
#
# Revision: 2
# Processed by: cddbd v1.5.2PL0 Copyright (c) Steve Scherf et al.
# Submitted via: ExactAudioCopy v0.99pb4
#
DISCID=0a0e6814
DTITLE=Various Artist - 100 Vlaamse Klassiekers Volume 2 - CD 1
DYEAR=2008
DGENRE=Chanson
TTITLE0=Clouseau  - Vanbinnen
TTITLE1=Gene Thomas - Voor Haar
TTITLE2=Wim Soutaer - 1000 Manieren
TTITLE3=Christoff - Een Ster
TTITLE4=Laura Lynn - Vlinders In Je Buik
TTITLE5=Marva - Leve Leve De Liefde
TTITLE6=Louis Neefs - Oh Oh Ik heb Zorgen
TTITLE7=Ann Christy - Blij Bij Jou Te Zijn
TTITLE8=Dana Winner - Het Kleine Paradijs
TTITLE9=Margriet Hermans - Een Vriend
TTITLE10=Joe Harris - Drink Rode Wijn
TTITLE11=Bart Kaëll - Duizend Terrassen In Rome
TTITLE12=Willy Sommers - Weet Je Nog Die Slow
TTITLE13=Erik Van Neygen and Sanne - Aan Mijn Darling
TTITLE14=Will Tura - Onvergetelijk
TTITLE15=Bob Benny - Blauw is De Nacht
TTITLE16=Ronny Temmer - 100.000 Rozen
TTITLE17=Jacques Raymond - Waarom
TTITLE18=Rocco Granata - Noordzeestrand
TTITLE19=Bobbejaan Schoepen - Ik Sta Op Wacht
EXTD=YEAR: 2008
EXTT0=
EXTT1=
EXTT2=
EXTT3=
EXTT4=
EXTT5=
EXTT6=
EXTT7=
EXTT8=
EXTT9=
EXTT10=
EXTT11=
EXTT12=
EXTT13=
EXTT14=
EXTT15=
EXTT16=
EXTT17=
EXTT18=
EXTT19=
PLAYORDER=
